<svg xmlns="http://www.w3.org/2000/svg" width="100" height="100" viewBox="0 0 100 100">
    <circle fill="#3c245c" cx="50" cy="50" r="50"/>
    <path fill="#fff" d="M66.339 25.477h-5.446v-1.816c0-1.003-.812-1.815-1.815-1.815h-3.941a5.45 5.45 0 0 0-10.273 0h-3.941c-1.003 0-1.815.813-1.815 1.815v1.816h-5.446a5.45 5.45 0 0 0-5.446 5.446v39.94a5.45 5.45 0 0 0 5.446 5.446H66.34a5.45 5.45 0 0 0 5.446-5.446v-39.94a5.45 5.45 0 0 0-5.447-5.446zm-23.601 0h3.631c1.003 0 1.816-.813 1.816-1.816s.812-1.815 1.815-1.815 1.816.813 1.816 1.815.813 1.816 1.816 1.816h3.631v3.631H42.738v-3.631zm25.416 45.386c0 1.003-.813 1.815-1.815 1.815H33.661c-1.003 0-1.815-.813-1.815-1.815v-39.94c0-1.003.813-1.815 1.815-1.815h5.446v1.815c0 1.003.813 1.815 1.815 1.815h18.154c1.003 0 1.815-.812 1.815-1.815v-1.815h5.447c1.003 0 1.815.813 1.815 1.815v39.94zm-7.461-27.112c-1.034-1.09-2.75-1.151-3.859-.138l-8.82 8.406-3.721-3.859c-1.034-1.09-2.75-1.151-3.859-.138-1.067 1.118-1.067 2.878 0 3.996l5.65 5.788a2.48 2.48 0 0 0 1.929.827c.727-.01 1.42-.308 1.929-.827L60.693 47.61a2.62 2.62 0 0 0 .159-3.699l-.159-.159z"/>
</svg>
