<svg xmlns="http://www.w3.org/2000/svg" width="100" height="100" viewBox="0 0 100 100">
    <circle fill="#b1e8e0" cx="50" cy="50" r="50"/>
    <path fill="#e66d18" d="M42.912 41.194L43.569 87l40.617-15.681 3.141-42.23-44.416 12.105z"/>
    <path fill="#b4510b" d="M15.371 24.55l2.995 40.923L43.569 87l-.657-45.806L15.371 24.55z"/>
    <path fill="#f18e48" d="M15.371 24.55l27.541 16.644 44.416-12.105L56.353 15.54l-40.982 9.01z"/>
    <path fill="#c64d07" d="M47.514 44.564l.292 36.865L80.972 68.98l2.192-34.526-35.65 10.11z"/>
    <path fill="#a23c00" d="M20.193 63.684L40.94 80.81l-.877-36.727L17.855 30.12l2.338 33.564z"/>
    <path fill="#ef6e21" d="M21.8 25.031l22.573 13.205 35.942-9.56-24.911-11.211L21.8 25.031z"/>
</svg>
