<svg xmlns="http://www.w3.org/2000/svg" width="73" height="72" viewBox="0 0 73 72" fill-rule="evenodd">
    <path d="M27.912 26.194L28.569 72l40.617-15.681 3.141-42.23-44.416 12.105zm4.602 3.37l.292 36.865L65.972 53.98l2.192-34.526-35.65 10.11z"/>
    <path d="M.371 9.55l2.995 40.923L28.569 72l-.657-45.806L.371 9.55zm4.821 39.135L25.939 65.81l-.877-36.727L2.855 15.121l2.338 33.564z"/>
    <path d="M.371 9.55l27.541 16.644 44.416-12.105L41.353.54.371 9.55zm6.429.481l22.573 13.205 35.942-9.56L40.404 2.466 6.799 10.031z"/>
</svg>
