<?xml version="1.0" encoding="UTF-8" standalone="no"?>
<svg width="73px" height="72px" viewBox="0 0 73 72" version="1.1" xmlns="http://www.w3.org/2000/svg" xmlns:xlink="http://www.w3.org/1999/xlink" xmlns:sketch="http://www.bohemiancoding.com/sketch/ns">
    <!-- Generator: Sketch 3.1.1 (8761) - http://www.bohemiancoding.com/sketch -->
    <title>inventory</title>
    <desc>Created with Sketch.</desc>
    <defs></defs>
    <g id="Page-1" stroke="none" stroke-width="1" fill="none" fill-rule="evenodd" sketch:type="MSPage">
        <g id="inventory" sketch:type="MSLayerGroup" transform="translate(0.000000, 1.000000)" fill="#000000">
            <path d="M27.9116114,25.1939746 L28.5690822,71 L69.1861667,55.318658 L72.3274161,13.089079 L27.9116114,25.1939746 Z M32.5139069,28.5640876 L32.8061162,65.4289969 L65.9718651,52.9802122 L68.1634344,18.4537486 L32.5139069,28.5640876 Z" id="right-outer" sketch:type="MSShapeGroup"></path>
            <path d="M0.370890373,8.54974314 L3.3660351,49.4725436 L28.5690822,71 L27.9116114,25.1939746 L0.370890373,8.54974314 Z M5.19234286,47.6843204 C5.19234286,47.6843204 25.9407274,64.8735738 25.939199,64.8099966 C25.6485181,52.7183311 25.0625713,28.0826429 25.0625713,28.0826429 L2.85466892,14.1207462 L5.19234286,47.6843204 Z" id="left-outer" sketch:type="MSShapeGroup"></path>
            <path d="M0.370890373,8.54974314 L27.9116114,25.1939746 L72.3274161,13.089079 L41.3532365,-0.460150744 L0.370890373,8.54974314 Z M6.79949368,9.03118785 L29.3726576,22.2365285 L65.3143943,12.6764121 L40.4035564,1.4656281 L6.79949368,9.03118785 Z" id="top-outer" sketch:type="MSShapeGroup"></path>
        </g>
    </g>
</svg>