<svg xmlns="http://www.w3.org/2000/svg" width="100" height="100" viewBox="0 0 100 100">
    <path d="M78.125 12.499h-9.376V9.374c0-1.714-1.41-3.124-3.124-3.125h-6.784C57.128 1.4 51.729-1.182 46.88.529a9.38 9.38 0 0 0-5.721 5.72h-6.784c-1.714 0-3.125 1.411-3.125 3.125v3.125h-9.376c-5.142.001-9.373 4.232-9.374 9.374v68.75c0 5.144 4.231 9.374 9.374 9.376h56.251c5.144 0 9.374-4.231 9.376-9.374V21.874c-.001-5.144-4.232-9.374-9.376-9.374zm-40.626 0h6.251c1.714 0 3.125-1.411 3.125-3.125s1.41-3.124 3.124-3.125 3.125 1.411 3.125 3.125 1.411 3.125 3.125 3.125h6.252v6.251H37.499v-6.251zM81.25 90.626c0 1.714-1.411 3.125-3.125 3.125H21.874c-1.714 0-3.125-1.411-3.125-3.125V21.874c0-1.714 1.411-3.125 3.125-3.125h9.376v3.125c.001 1.714 1.411 3.124 3.125 3.124h31.25a3.14 3.14 0 0 0 3.124-3.124v-3.125h9.376c1.714.001 3.124 1.411 3.124 3.125v68.75l.001.001zM67.395 43.956c-1.77-1.861-4.745-1.967-6.642-.238L45.57 58.188l-6.405-6.642c-1.77-1.861-4.745-1.967-6.642-.238-1.838 1.925-1.838 4.955 0 6.88l9.726 9.963c.84.943 2.059 1.465 3.321 1.424 1.251-.018 2.445-.529 3.321-1.424l18.503-17.554c1.835-1.682 1.957-4.534.274-6.369l-.272-.274-.001.001z"/>
</svg>
